<svg width="13" height="24" viewBox="0 0 13 24" xmlns="http://www.w3.org/2000/svg">
<path d="M0.651989 0.666002C0.477544 0.844598 0.379883 1.08435 0.379883 1.334C0.379883 1.58366 0.477544 1.82341 0.651989 2.002L10.398 12L0.651989 21.996C0.477544 22.1746 0.379883 22.4143 0.379883 22.664C0.379883 22.9136 0.477544 23.1534 0.651989 23.332C0.736781 23.4191 0.83816 23.4883 0.950143 23.5356C1.06213 23.5828 1.18244 23.6072 1.30399 23.6072C1.42554 23.6072 1.54585 23.5828 1.65784 23.5356C1.76982 23.4883 1.8712 23.4191 1.95599 23.332L12.32 12.698C12.502 12.5112 12.6039 12.2608 12.6039 12C12.6039 11.7392 12.502 11.4887 12.32 11.302L1.95599 0.668002C1.8712 0.580916 1.76982 0.511698 1.65784 0.464435C1.54585 0.417172 1.42554 0.392822 1.30399 0.392822C1.18244 0.392822 1.06213 0.417172 0.950143 0.464435C0.83816 0.511698 0.736781 0.580916 0.651989 0.668002V0.666002Z"/>
</svg>
